<?xml version="1.0" standalone="no"?>
<!DOCTYPE svg PUBLIC "-//W3C//DTD SVG 20010904//EN"
 "http://www.w3.org/TR/2001/REC-SVG-20010904/DTD/svg10.dtd">
<svg version="1.0" xmlns="http://www.w3.org/2000/svg"
 width="512.000000pt" height="512.000000pt" viewBox="0 0 512.000000 512.000000"
 preserveAspectRatio="xMidYMid meet">
<metadata>
Created by potrace 1.14, written by Peter Selinger 2001-2017
</metadata>
<g transform="translate(0.000000,512.000000) scale(0.100000,-0.100000)"
fill="#000000" stroke="none">
<path d="M2 2560 l3 -1955 148 0 147 0 -2 1955 -3 1955 -148 0 -147 0 2 -1955z"/>
<path d="M489 4505 c-1 -5 -2 -884 -3 -1953 -1 -1547 2 -1942 11 -1943 34 -4
139 -5 148 -2 7 2 10 658 9 1946 -1 1068 -2 1947 -3 1952 -1 14 -161 14 -162
0z"/>
<path d="M779 4511 c-1 -3 -2 -882 -3 -1953 -1 -1291 2 -1949 9 -1951 6 -2 44
-3 85 -3 l75 1 0 1953 c0 1073 -2 1952 -5 1953 -22 5 -160 5 -161 0z"/>
<path d="M1169 4500 c-1 -20 -1 -3815 0 -3860 l1 -35 183 0 182 0 1 1953 c1
1433 -2 1952 -10 1953 -6 1 -89 2 -183 3 -149 1 -173 -1 -174 -14z"/>
<path d="M1836 4511 c-2 -3 -2 -883 -2 -1956 l1 -1949 90 -1 90 0 0 1955 0
1954 -88 1 c-48 1 -89 -1 -91 -4z"/>
<path d="M2309 4505 c-4 -34 -3 -3888 1 -3894 3 -4 175 -7 383 -7 l377 1 1 35
c1 45 1 3829 0 3855 -1 20 -7 20 -381 20 -249 0 -380 -3 -381 -10z"/>
<path d="M3385 4511 c-3 -2 -5 -882 -5 -1955 l0 -1951 83 0 82 0 0 1953 c0
1073 -2 1953 -5 1953 -18 4 -151 4 -155 0z"/>
<path d="M3780 2560 l0 -1955 73 1 c39 1 77 2 83 3 11 1 16 3900 5 3902 -3 1
-41 2 -83 3 l-78 2 0 -1956z"/>
<path d="M4306 4510 c-1 -3 -2 -882 -2 -1955 l1 -1950 125 0 125 0 0 1955 0
1955 -123 0 c-68 1 -125 -2 -126 -5z"/>
<path d="M4779 4510 c-4 -19 -3 -3900 1 -3901 3 -1 80 -2 173 -3 l167 -2 -2
1956 -3 1955 -167 0 c-93 1 -168 -2 -169 -5z"/>
</g>
</svg>
